# xmcd
# 
# Track frame offsets:
#     150
#     15630
#     34707
#     51745
#     67250
#     86352
#     105502
#     124090
#     141655
#     158157
#     177462
#     197622
#     214987
#     230230
#     247965
#     274202
#     289937
#     308037
#     322657
# 
# Disc length: 4618
# 
# Revision: 6
# Processed by: cddbd v1.5.2PL0 Copyright (c) Steve Scherf et al.
# Submitted via: fre:ac v1.0.27
# 
DISCID=21120813
DTITLE=The Corrs - The Best Of The Corrs
DYEAR=2001
DGENRE=Pop
TTITLE0=Would You Be Happier?
TTITLE1=So Young [K-Klass Remix]
TTITLE2=Runaway
TTITLE3=Breathless
TTITLE4=Radio (Unplugged)
TTITLE5=What Can I Do [Tin Tin Out Remix]
TTITLE6=The Right Time
TTITLE7=I Never Loved You Anyway
TTITLE8=Irresistible
TTITLE9=Forgiven, Not Forgotten
TTITLE10=Lough Erin Shore (Unplugged)
TTITLE11=Only When I Sleep
TTITLE12=Love To Love You
TTITLE13=All The Love In The World [Remix]
TTITLE14=Everybody Hurts (Unplugged)
TTITLE15=Give Me A Reason
TTITLE16=Dreams
TTITLE17=Make You Mine
TTITLE18=Una Noche (One Night Feat. Alejandro Sanz) [Spanish Version]
EXTD=
EXTT0=
EXTT1=
EXTT2=
EXTT3=
EXTT4=
EXTT5=
EXTT6=
EXTT7=
EXTT8=
EXTT9=
EXTT10=
EXTT11=
EXTT12=
EXTT13=
EXTT14=
EXTT15=
EXTT16=
EXTT17=
EXTT18=
PLAYORDER=
